<svg xmlns="http://www.w3.org/2000/svg">
  <symbol id="icon-flag" viewBox="0 0 28 28">
    <g clip-path="url(#clip-flag)">
      <path d="M14 28C21.732 28 28 21.732 28 14C28 6.26801 21.732 0 14 0C6.26801 0 0 6.26801 0 14C0 21.732
  6.26801 28 14 28Z" fill="#FFDA44"/>
      <path d="M0 14C0 6.26806 6.26806 0 14 0C21.7319 0 28 6.26806 28 14" fill="#338AF3"/>
    </g>
    <defs>
      <clipPath id="clip-flag">
        <rect width="28" height="28" fill="white"/>
      </clipPath>
    </defs>
  </symbol>
  <symbol id="icon-login" viewBox="0 0 20 20" fill="none">
    <path d="M12.5 2.5H13.5C14.9001 2.5 15.6002 2.5 16.135 2.77248C16.6054 3.01217 16.9878 3.39462 17.2275
  3.86502C17.5 4.3998 17.5 5.09987 17.5 6.5V13.5C17.5 14.9001 17.5 15.6002 17.2275 16.135C16.9878 16.6054 16.6054
  16.9878 16.135 17.2275C15.6002 17.5 14.9001 17.5 13.5 17.5H12.5" stroke="#F4C550" stroke-width="2"
  stroke-linecap="round" stroke-linejoin="round"/>
    <path d="M8.33333 5.83325L12.5 9.99992M12.5 9.99992L8.33333 14.1666M12.5 9.99992L2.5 9.99992"
  stroke="#F4C550" stroke-width="2" stroke-linecap="round" stroke-linejoin="round"/>
  </symbol>
  <symbol id="icon-close" viewBox="0 0 19 19" fill="none">
    <path d="M17.25 1.25L1.25 17.25" stroke="#121417" stroke-width="2.5" stroke-linecap="round"
  stroke-linejoin="round"/>
    <path d="M1.25 1.25L17.25 17.25" stroke="#121417" stroke-width="2.5" stroke-linecap="round"
  stroke-linejoin="round"/>
  </symbol>
  <symbol id="icon-eye-off" viewBox="0 0 20 20" fill="none">
    <g clip-path="url(#clip-eye-off)">
      <path d="M14.9502 14.9499C13.5257 16.0358 11.7911 16.6373 10.0002 16.6666C4.16683 16.6666 0.833496 9.99994
  0.833496 9.99994C1.87007 8.06819 3.30778 6.38045 5.05016 5.04994M8.25016 3.53327C8.82377 3.39901 9.41105 3.33189
   10.0002 3.33327C15.8335 3.33327 19.1668 9.99994 19.1668 9.99994C18.661 10.9463 18.0577 11.8372 17.3668
  12.6583M11.7668 11.7666C11.538 12.0122 11.262 12.2092 10.9553 12.3459C10.6486 12.4825 10.3176 12.556 9.98191
  12.5619C9.64623 12.5678 9.3128 12.5061 9.00151 12.3803C8.69021 12.2546 8.40743 12.0675 8.17004 11.8301C7.93264
  11.5927 7.74549 11.3099 7.61975 10.9986C7.49402 10.6873 7.43227 10.3539 7.43819 10.0182C7.44411 9.68252 7.51759
  9.35148 7.65423 9.04481C7.79087 8.73815 7.98787 8.46215 8.2335 8.23327" stroke="#121417" stroke-width="2"
  stroke-linecap="round" stroke-linejoin="round"/>
      <path d="M0.833496 0.833374L19.1668 19.1667" stroke="#121417" stroke-width="2" stroke-linecap="round"
  stroke-linejoin="round"/>
    </g>
    <defs>
      <clipPath id="clip-eye-off">
        <rect width="20" height="20" fill="white"/>
      </clipPath>
    </defs>
  </symbol>
  <symbol id="icon-star" viewBox="0 0 15 14" fill="none">
    <path d="M8.88965 4.12573C9.0488 4.42725 9.33887 4.63786 9.6748 4.69604L13.4746 5.35229L10.7871
  8.11987C10.5496 8.36444 10.4388 8.70526 10.4873 9.04272L11.0361 12.8601L7.5752 11.1589L7.45801 11.1091C7.21993
  11.0245 6.95976 11.0245 6.72168 11.1091L6.60449 11.1589L3.14258 12.8601L3.69238 9.04272C3.74091 8.70526 3.6301
  8.36444 3.39258 8.11987L0.704102 5.35229L4.50488 4.69604C4.84082 4.63786 5.13088 4.42725 5.29004 4.12573L7.08984
   0.7146L8.88965 4.12573Z" fill="#FFC531" stroke="#FFC531" stroke-width="1.2"/>
  </symbol>
  <symbol id="icon-heart" viewBox="0 0 25 22" fill="none">
    <path d="M21.8989 2.74614C21.3456 2.19257 20.6886 1.75343 19.9655 1.45382C19.2425 1.15421 18.4674 1 17.6847
  1C16.902 1 16.127 1.15421 15.4039 1.45382C14.6809 1.75343 14.0239 2.19257 13.4706 2.74614L12.3222
  3.89448L11.1739 2.74614C10.0562 1.62848 8.54035 1.00058 6.95973 1.00058C5.37911 1.00058 3.86323 1.62848 2.74557
  2.74614C1.6279 3.86381 1 5.37969 1 6.96031C1 8.54093 1.6279 10.0568 2.74557 11.1745L3.8939 12.3228L12.3222
  20.7511L20.7506 12.3228L21.8989 11.1745C22.4525 10.6212 22.8916 9.96419 23.1912 9.24111C23.4908 8.51803 23.645
  7.74301 23.645 6.96031C23.645 6.17762 23.4908 5.40259 23.1912 4.67951C22.8916 3.95643 22.4525 3.29946 21.8989
  2.74614Z" stroke="#121417" stroke-width="2" stroke-linecap="round" stroke-linejoin="round"/>
  </symbol>
  <symbol id="icon-book" viewBox="0 0 16 16" fill="none">
    <path d="M14.6667 4.13333C14.6667 3.3866 14.6667 3.01323 14.5213 2.72801C14.3935 2.47713 14.1895 2.27316
  13.9387 2.14532C13.6534 2 13.2801 2 12.5333 2H12.2667C10.7732 2 10.0265 2 9.45603 2.29065C8.95426 2.54631
  8.54631 2.95426 8.29065 3.45603C8 4.02646 8 4.77319 8 6.26667V14L8.0667 13.8999C8.5298 13.2053 8.76135 12.858
  9.06727 12.6065C9.33809 12.3839 9.65016 12.2169 9.9856 12.1151C10.3645 12 10.7819 12 11.6168 12H12.5333C13.2801
  12 13.6534 12 13.9387 11.8547C14.1895 11.7268 14.3935 11.5229 14.5213 11.272C14.6667 10.9868 14.6667 10.6134
  14.6667 9.86667V4.13333Z" stroke="black" stroke-width="1.5" stroke-linecap="round" stroke-linejoin="round"/>
    <path d="M1.33325 4.13333C1.33325 3.3866 1.33325 3.01323 1.47858 2.72801C1.60641 2.47713 1.81038 2.27316
  2.06126 2.14532C2.34648 2 2.71985 2 3.46659 2H3.73325C5.22673 2 5.97346 2 6.54389 2.29065C7.04566 2.54631
  7.45361 2.95426 7.70927 3.45603C7.99992 4.02646 7.99992 4.77319 7.99992 6.26667V14L7.93322 13.8999C7.47012
  13.2053 7.23857 12.858 6.93265 12.6065C6.66182 12.3839 6.34976 12.2169 6.01432 12.1151C5.63542 12 5.21799 12
  4.38313 12H3.46659C2.71985 12 2.34648 12 2.06126 11.8547C1.81038 11.7268 1.60641 11.5229 1.47858 11.272C1.33325
  10.9868 1.33325 10.6134 1.33325 9.86667V4.13333Z" stroke="black" stroke-width="1.5" stroke-linecap="round"
  stroke-linejoin="round"/>
  </symbol>
</svg>